<?xml version="1.0" encoding="UTF-8"?>
<svg id="Layer_1" data-name="Layer 1" xmlns="http://www.w3.org/2000/svg" viewBox="0 0 59.18 68.34">
  <defs>
    <style>
      .cls-1 {
        fill: #f37f20;
      }

      .cls-1, .cls-2, .cls-3, .cls-4, .cls-5, .cls-6 {
        stroke: #090a0a;
        stroke-width: .25px;
      }

      .cls-1, .cls-2, .cls-3, .cls-4, .cls-5, .cls-6, .cls-7 {
        stroke-miterlimit: 10;
      }

      .cls-2 {
        fill: #4fae49;
      }

      .cls-3 {
        fill: #cbc1c1;
      }

      .cls-4 {
        fill: #e12228;
      }

      .cls-5 {
        fill: #3a7fb9;
      }

      .cls-6 {
        fill: #5ab94e;
      }

      .cls-7 {
        fill: #062240;
        stroke: #d7d7de;
      }
    </style>
  </defs>
  <polygon class="cls-7" points=".5 17.38 .5 50.97 29.59 67.76 58.68 50.96 58.68 17.37 29.59 .58 .5 17.38"/>
  <polygon class="cls-1" points="21.05 33.03 21.05 34.99 22.75 35.96 24.44 34.99 24.44 33.03 22.75 32.06 21.05 33.03"/>
  <polygon class="cls-5" points="22.75 30.1 22.75 32.05 24.44 33.03 26.13 32.05 26.13 30.1 24.44 29.12 22.75 30.1"/>
  <polygon class="cls-1" points="24.44 33.03 24.44 34.99 26.13 35.96 27.82 34.98 27.82 33.03 26.13 32.06 24.44 33.03"/>
  <polygon class="cls-5" points="26.13 30.1 26.13 32.05 27.82 33.03 29.51 32.05 29.51 30.1 27.82 29.12 26.13 30.1"/>
  <polygon class="cls-3" points="24.44 27.15 24.44 29.11 26.13 30.08 27.82 29.11 27.82 27.15 26.13 26.18 24.44 27.15"/>
  <polygon class="cls-3" points="21.06 27.15 21.06 29.11 22.75 30.08 24.44 29.11 24.44 27.15 22.75 26.18 21.06 27.15"/>
  <polygon class="cls-5" points="19.36 30.1 19.36 32.05 21.06 33.03 22.75 32.05 22.75 30.1 21.06 29.12 19.36 30.1"/>
  <polygon class="cls-3" points="27.82 27.12 27.82 29.08 29.51 30.05 31.2 29.07 31.2 27.12 29.51 26.15 27.82 27.12"/>
  <polygon class="cls-2" points="29.51 24.19 29.51 26.14 31.2 27.12 32.89 26.14 32.89 24.19 31.2 23.21 29.51 24.19"/>
  <polygon class="cls-2" points="31.2 27.12 31.2 29.07 32.89 30.05 34.59 29.07 34.59 27.12 32.89 26.14 31.2 27.12"/>
  <polygon class="cls-3" points="32.89 24.19 32.89 26.14 34.59 27.12 36.28 26.14 36.28 24.19 34.59 23.21 32.89 24.19"/>
  <polygon class="cls-3" points="31.2 21.24 31.2 23.2 32.89 24.17 34.59 23.19 34.59 21.24 32.89 20.27 31.2 21.24"/>
  <polygon class="cls-3" points="27.82 21.24 27.82 23.19 29.51 24.17 31.2 23.19 31.2 21.24 29.51 20.26 27.82 21.24"/>
  <polygon class="cls-2" points="26.13 24.19 26.13 26.14 27.82 27.12 29.51 26.14 29.51 24.19 27.82 23.21 26.13 24.19"/>
  <polygon class="cls-5" points="29.51 35.97 29.51 37.93 31.2 38.9 32.89 37.93 32.89 35.97 31.2 35 29.51 35.97"/>
  <polygon class="cls-3" points="31.2 33.04 31.2 34.99 32.89 35.97 34.58 34.99 34.58 33.04 32.89 32.06 31.2 33.04"/>
  <polygon class="cls-3" points="32.89 35.97 32.89 37.93 34.59 38.9 36.28 37.92 36.28 35.97 34.59 35 32.89 35.97"/>
  <polygon class="cls-3" points="34.59 33.04 34.59 34.99 36.28 35.97 37.97 34.99 37.97 33.04 36.28 32.06 34.59 33.04"/>
  <polygon class="cls-2" points="32.89 30.09 32.89 32.05 34.59 33.02 36.28 32.05 36.28 30.09 34.59 29.12 32.89 30.09"/>
  <polygon class="cls-3" points="29.51 30.09 29.51 32.05 31.2 33.02 32.89 32.05 32.89 30.09 31.2 29.12 29.51 30.09"/>
  <polygon class="cls-5" points="27.82 33.04 27.82 34.99 29.51 35.97 31.2 34.99 31.2 33.04 29.51 32.06 27.82 33.04"/>
  <polygon class="cls-5" points="12.6 35.98 12.6 37.93 14.29 38.91 15.98 37.93 15.98 35.98 14.29 35 12.6 35.98"/>
  <polygon class="cls-5" points="14.29 33.05 14.29 35 15.98 35.98 17.67 35 17.67 33.05 15.98 32.07 14.29 33.05"/>
  <polygon class="cls-1" points="15.98 35.98 15.98 37.93 17.67 38.91 19.36 37.93 19.36 35.98 17.67 35 15.98 35.98"/>
  <polygon class="cls-1" points="17.67 33.05 17.67 35 19.36 35.98 21.06 35 21.06 33.05 19.36 32.07 17.67 33.05"/>
  <polygon class="cls-5" points="15.98 30.1 15.98 32.05 17.67 33.03 19.36 32.05 19.36 30.1 17.67 29.13 15.98 30.1"/>
  <polygon class="cls-3" points="12.6 30.1 12.6 32.05 14.29 33.03 15.98 32.05 15.98 30.1 14.29 29.12 12.6 30.1"/>
  <polygon class="cls-3" points="10.91 33.05 10.91 35 12.6 35.98 14.29 35 14.29 33.05 12.6 32.07 10.91 33.05"/>
  <polygon class="cls-4" points="19.36 41.83 19.36 43.79 21.05 44.76 22.75 43.79 22.75 41.83 21.05 40.86 19.36 41.83"/>
  <polygon class="cls-4" points="22.75 41.83 22.75 43.79 24.44 44.76 26.13 43.78 26.13 41.83 24.44 40.86 22.75 41.83"/>
  <polygon class="cls-4" points="24.44 38.9 24.44 40.85 26.13 41.83 27.82 40.85 27.82 38.9 26.13 37.92 24.44 38.9"/>
  <polygon class="cls-4" points="22.75 35.95 22.75 37.91 24.44 38.88 26.13 37.91 26.13 35.95 24.44 34.98 22.75 35.95"/>
  <polygon class="cls-4" points="19.36 35.95 19.36 37.91 21.06 38.88 22.75 37.91 22.75 35.95 21.06 34.98 19.36 35.95"/>
  <polygon class="cls-4" points="17.67 38.9 17.67 40.85 19.36 41.83 21.06 40.85 21.06 38.9 19.36 37.92 17.67 38.9"/>
  <polygon class="cls-3" points="4.24 38.92 4.24 40.87 5.94 41.85 7.63 40.87 7.63 38.92 5.94 37.94 4.24 38.92"/>
  <polygon class="cls-3" points="5.94 35.99 5.94 37.94 7.63 38.92 9.32 37.94 9.32 35.99 7.63 35.01 5.94 35.99"/>
  <polygon class="cls-3" points="7.63 38.92 7.63 40.87 9.32 41.85 11.01 40.87 11.01 38.92 9.32 37.94 7.63 38.92"/>
  <polygon class="cls-3" points="9.32 35.99 9.32 37.94 11.01 38.92 12.7 37.94 12.7 35.99 11.01 35.01 9.32 35.99"/>
  <polygon class="cls-3" points="7.63 33.04 7.63 34.99 9.32 35.97 11.01 34.99 11.01 33.04 9.32 32.07 7.63 33.04"/>
  <polygon class="cls-3" points="4.25 33.04 4.25 34.99 5.94 35.97 7.63 34.99 7.63 33.04 5.94 32.06 4.25 33.04"/>
  <polygon class="cls-3" points="2.55 35.99 2.55 37.94 4.25 38.92 5.94 37.94 5.94 35.99 4.25 35.01 2.55 35.99"/>
  <polygon class="cls-3" points="7.52 27.16 7.52 29.11 9.22 30.09 10.91 29.11 10.91 27.16 9.22 26.18 7.52 27.16"/>
  <polygon class="cls-3" points="9.22 24.23 9.22 26.18 10.91 27.16 12.6 26.18 12.6 24.23 10.91 23.25 9.22 24.23"/>
  <polygon class="cls-3" points="10.91 27.16 10.91 29.11 12.6 30.09 14.29 29.11 14.29 27.16 12.6 26.18 10.91 27.16"/>
  <polygon class="cls-3" points="12.6 24.23 12.6 26.18 14.29 27.16 15.98 26.18 15.98 24.23 14.29 23.25 12.6 24.23"/>
  <polygon class="cls-3" points="10.91 21.28 10.91 23.23 12.6 24.21 14.29 23.23 14.29 21.28 12.6 20.31 10.91 21.28"/>
  <polygon class="cls-3" points="7.53 21.28 7.53 23.23 9.22 24.21 10.91 23.23 10.91 21.28 9.22 20.3 7.53 21.28"/>
  <polygon class="cls-3" points="5.83 24.23 5.83 26.18 7.53 27.16 9.22 26.18 9.22 24.23 7.53 23.25 5.83 24.23"/>
  <polygon class="cls-2" points="36.27 30.1 36.27 32.05 37.97 33.03 39.66 32.05 39.66 30.1 37.97 29.12 36.27 30.1"/>
  <polygon class="cls-3" points="37.97 27.17 37.97 29.12 39.66 30.1 41.35 29.12 41.35 27.17 39.66 26.19 37.97 27.17"/>
  <polygon class="cls-3" points="39.66 30.1 39.66 32.05 41.35 33.03 43.04 32.05 43.04 30.1 41.35 29.12 39.66 30.1"/>
  <polygon class="cls-3" points="41.35 27.17 41.35 29.12 43.04 30.1 44.73 29.12 44.73 27.17 43.04 26.19 41.35 27.17"/>
  <polygon class="cls-4" points="39.66 24.22 39.66 26.17 41.35 27.15 43.04 26.17 43.04 24.22 41.35 23.25 39.66 24.22"/>
  <polygon class="cls-4" points="36.28 24.22 36.28 26.17 37.97 27.15 39.66 26.17 39.66 24.22 37.97 23.24 36.28 24.22"/>
  <polygon class="cls-3" points="34.58 27.17 34.58 29.12 36.28 30.1 37.97 29.12 37.97 27.17 36.28 26.19 34.58 27.17"/>
  <polygon class="cls-3" points="11.01 44.77 11.01 46.73 12.7 47.7 14.39 46.73 14.39 44.77 12.7 43.8 11.01 44.77"/>
  <polygon class="cls-5" points="12.7 41.84 12.7 43.79 14.39 44.77 16.08 43.79 16.08 41.84 14.39 40.86 12.7 41.84"/>
  <polygon class="cls-5" points="14.39 44.77 14.39 46.73 16.09 47.7 17.78 46.72 17.78 44.77 16.09 43.8 14.39 44.77"/>
  <polygon class="cls-1" points="16.09 41.84 16.09 43.79 17.78 44.77 19.47 43.79 19.47 41.84 17.78 40.87 16.09 41.84"/>
  <polygon class="cls-1" points="14.39 38.89 14.39 40.85 16.09 41.82 17.78 40.85 17.78 38.89 16.09 37.92 14.39 38.89"/>
  <polygon class="cls-5" points="11.01 38.89 11.01 40.85 12.7 41.82 14.39 40.85 14.39 38.89 12.7 37.92 11.01 38.89"/>
  <polygon class="cls-3" points="9.32 41.84 9.32 43.79 11.01 44.77 12.7 43.79 12.7 41.84 11.01 40.86 9.32 41.84"/>
  <polygon class="cls-3" points="31.2 44.78 31.2 46.73 32.89 47.71 34.58 46.73 34.58 44.78 32.89 43.8 31.2 44.78"/>
  <polygon class="cls-3" points="32.89 41.85 32.89 43.8 34.58 44.78 36.28 43.8 36.28 41.85 34.58 40.87 32.89 41.85"/>
  <polygon class="cls-3" points="34.59 44.78 34.59 46.73 36.28 47.71 37.97 46.73 37.97 44.78 36.28 43.8 34.59 44.78"/>
  <polygon class="cls-3" points="36.28 41.85 36.28 43.8 37.97 44.78 39.66 43.8 39.66 41.85 37.97 40.87 36.28 41.85"/>
  <polygon class="cls-3" points="34.59 38.9 34.59 40.85 36.28 41.83 37.97 40.85 37.97 38.9 36.28 37.93 34.59 38.9"/>
  <polygon class="cls-5" points="31.2 38.9 31.2 40.85 32.89 41.83 34.59 40.85 34.59 38.9 32.89 37.92 31.2 38.9"/>
  <polygon class="cls-5" points="29.51 41.85 29.51 43.8 31.2 44.78 32.89 43.8 32.89 41.85 31.2 40.87 29.51 41.85"/>
  <polygon class="cls-3" points="41.35 38.91 41.35 40.87 43.04 41.84 44.73 40.87 44.73 38.91 43.04 37.94 41.35 38.91"/>
  <polygon class="cls-3" points="43.04 35.98 43.04 37.93 44.73 38.91 46.42 37.93 46.42 35.98 44.73 35 43.04 35.98"/>
  <polygon class="cls-3" points="44.73 38.91 44.73 40.86 46.42 41.84 48.11 40.86 48.11 38.91 46.42 37.94 44.73 38.91"/>
  <polygon class="cls-3" points="46.42 35.98 46.42 37.93 48.11 38.91 49.81 37.93 49.81 35.98 48.11 35 46.42 35.98"/>
  <polygon class="cls-3" points="44.73 33.03 44.73 34.99 46.42 35.96 48.11 34.99 48.11 33.03 46.42 32.06 44.73 33.03"/>
  <polygon class="cls-3" points="41.35 33.03 41.35 34.99 43.04 35.96 44.73 34.98 44.73 33.03 43.04 32.06 41.35 33.03"/>
  <polygon class="cls-2" points="39.66 35.98 39.66 37.93 41.35 38.91 43.04 37.93 43.04 35.98 41.35 35 39.66 35.98"/>
  <polygon class="cls-3" points="46.42 30.11 46.42 32.06 48.11 33.04 49.81 32.06 49.81 30.11 48.11 29.13 46.42 30.11"/>
  <polygon class="cls-3" points="48.11 27.18 48.11 29.13 49.81 30.11 51.5 29.13 51.5 27.18 49.81 26.2 48.11 27.18"/>
  <polygon class="cls-3" points="49.81 30.11 49.81 32.06 51.5 33.04 53.19 32.06 53.19 30.11 51.5 29.13 49.81 30.11"/>
  <polygon class="cls-3" points="51.5 27.18 51.5 29.13 53.19 30.11 54.88 29.13 54.88 27.18 53.19 26.2 51.5 27.18"/>
  <polygon class="cls-3" points="49.81 24.23 49.81 26.18 51.5 27.16 53.19 26.18 53.19 24.23 51.5 23.25 49.81 24.23"/>
  <polygon class="cls-3" points="46.42 24.23 46.42 26.18 48.11 27.16 49.81 26.18 49.81 24.23 48.11 23.25 46.42 24.23"/>
  <polygon class="cls-3" points="44.73 27.18 44.73 29.13 46.42 30.11 48.11 29.13 48.11 27.18 46.42 26.2 44.73 27.18"/>
  <polygon class="cls-4" points="41.36 21.3 41.36 23.25 43.05 24.23 44.75 23.25 44.75 21.3 43.05 20.32 41.36 21.3"/>
  <polygon class="cls-3" points="43.05 18.37 43.05 20.32 44.75 21.29 46.44 20.32 46.44 18.36 44.75 17.39 43.05 18.37"/>
  <polygon class="cls-3" points="44.75 21.3 44.75 23.25 46.44 24.23 48.13 23.25 48.13 21.3 46.44 20.32 44.75 21.3"/>
  <polygon class="cls-3" points="46.44 18.37 46.44 20.32 48.13 21.29 49.82 20.32 49.82 18.37 48.13 17.39 46.44 18.37"/>
  <polygon class="cls-3" points="44.75 15.42 44.75 17.37 46.44 18.35 48.13 17.37 48.13 15.42 46.44 14.44 44.75 15.42"/>
  <polygon class="cls-3" points="41.36 15.42 41.36 17.37 43.06 18.35 44.75 17.37 44.75 15.42 43.06 14.44 41.36 15.42"/>
  <polygon class="cls-4" points="39.67 18.37 39.67 20.32 41.36 21.29 43.06 20.32 43.06 18.36 41.36 17.39 39.67 18.37"/>
  <polygon class="cls-3" points="34.58 15.36 34.58 17.32 36.28 18.29 37.97 17.32 37.97 15.36 36.28 14.39 34.58 15.36"/>
  <polygon class="cls-3" points="36.28 12.43 36.28 14.38 37.97 15.36 39.66 14.38 39.66 12.43 37.97 11.45 36.28 12.43"/>
  <polygon class="cls-3" points="37.97 15.36 37.97 17.32 39.66 18.29 41.35 17.31 41.35 15.36 39.66 14.39 37.97 15.36"/>
  <polygon class="cls-3" points="39.66 12.43 39.66 14.38 41.35 15.36 43.04 14.38 43.04 12.43 41.35 11.45 39.66 12.43"/>
  <polygon class="cls-3" points="37.97 9.48 37.97 11.44 39.66 12.41 41.35 11.44 41.35 9.48 39.66 8.51 37.97 9.48"/>
  <polygon class="cls-3" points="34.59 9.48 34.59 11.44 36.28 12.41 37.97 11.44 37.97 9.48 36.28 8.51 34.59 9.48"/>
  <polygon class="cls-3" points="32.89 12.43 32.89 14.38 34.59 15.36 36.28 14.38 36.28 12.43 34.59 11.45 32.89 12.43"/>
  <polygon class="cls-3" points="24.44 15.37 24.44 17.32 26.13 18.3 27.82 17.32 27.82 15.37 26.13 14.39 24.44 15.37"/>
  <polygon class="cls-3" points="26.13 12.44 26.13 14.39 27.82 15.37 29.51 14.39 29.51 12.44 27.82 11.46 26.13 12.44"/>
  <polygon class="cls-3" points="27.82 15.37 27.82 17.32 29.51 18.3 31.2 17.32 31.2 15.37 29.51 14.39 27.82 15.37"/>
  <polygon class="cls-3" points="29.51 12.44 29.51 14.39 31.2 15.37 32.89 14.39 32.89 12.44 31.2 11.46 29.51 12.44"/>
  <polygon class="cls-3" points="27.82 9.49 27.82 11.44 29.51 12.42 31.2 11.44 31.2 9.49 29.51 8.52 27.82 9.49"/>
  <polygon class="cls-3" points="24.44 9.49 24.44 11.44 26.13 12.42 27.82 11.44 27.82 9.49 26.13 8.51 24.44 9.49"/>
  <polygon class="cls-3" points="22.75 12.44 22.75 14.39 24.44 15.37 26.13 14.39 26.13 12.44 24.44 11.46 22.75 12.44"/>
  <polygon class="cls-3" points="32.89 53.53 32.89 55.48 34.58 56.46 36.28 55.48 36.28 53.53 34.58 52.55 32.89 53.53"/>
  <polygon class="cls-3" points="34.58 50.6 34.58 52.55 36.28 53.53 37.97 52.55 37.97 50.6 36.28 49.62 34.58 50.6"/>
  <polygon class="cls-3" points="36.28 53.53 36.28 55.48 37.97 56.46 39.66 55.48 39.66 53.53 37.97 52.55 36.28 53.53"/>
  <polygon class="cls-2" points="37.97 50.6 37.97 52.55 39.66 53.53 41.35 52.55 41.35 50.6 39.66 49.62 37.97 50.6"/>
  <polygon class="cls-2" points="36.28 47.65 36.28 49.6 37.97 50.58 39.66 49.6 39.66 47.65 37.97 46.67 36.28 47.65"/>
  <polygon class="cls-3" points="32.89 47.65 32.89 49.6 34.59 50.58 36.28 49.6 36.28 47.65 34.59 46.67 32.89 47.65"/>
  <polygon class="cls-3" points="31.2 50.6 31.2 52.55 32.89 53.53 34.59 52.55 34.59 50.6 32.89 49.62 31.2 50.6"/>
  <polygon class="cls-3" points="24.44 50.64 24.44 52.59 26.13 53.57 27.82 52.59 27.82 50.64 26.13 49.66 24.44 50.64"/>
  <polygon class="cls-5" points="26.13 47.71 26.13 49.66 27.82 50.64 29.51 49.66 29.51 47.71 27.82 46.73 26.13 47.71"/>
  <polygon class="cls-3" points="27.82 50.64 27.82 52.59 29.51 53.57 31.2 52.59 31.2 50.64 29.51 49.66 27.82 50.64"/>
  <polygon class="cls-3" points="29.51 47.71 29.51 49.66 31.2 50.64 32.89 49.66 32.89 47.71 31.2 46.73 29.51 47.71"/>
  <polygon class="cls-5" points="27.82 44.76 27.82 46.72 29.51 47.69 31.2 46.71 31.2 44.76 29.51 43.79 27.82 44.76"/>
  <polygon class="cls-1" points="24.44 44.76 24.44 46.71 26.13 47.69 27.82 46.71 27.82 44.76 26.13 43.78 24.44 44.76"/>
  <polygon class="cls-5" points="22.75 47.71 22.75 49.66 24.44 50.64 26.13 49.66 26.13 47.71 24.44 46.73 22.75 47.71"/>
  <polygon class="cls-3" points="19.36 24.25 19.36 26.2 21.06 27.18 22.75 26.2 22.75 24.25 21.06 23.27 19.36 24.25"/>
  <polygon class="cls-6" points="21.06 21.31 21.06 23.27 22.75 24.24 24.44 23.27 24.44 21.31 22.75 20.34 21.06 21.31"/>
  <polygon class="cls-2" points="22.75 24.25 22.75 26.2 24.44 27.17 26.13 26.2 26.13 24.25 24.44 23.27 22.75 24.25"/>
  <polygon class="cls-3" points="24.44 21.31 24.44 23.27 26.13 24.24 27.82 23.27 27.82 21.31 26.13 20.34 24.44 21.31"/>
  <polygon class="cls-2" points="22.75 18.37 22.75 20.32 24.44 21.3 26.13 20.32 26.13 18.37 24.44 17.39 22.75 18.37"/>
  <polygon class="cls-2" points="19.36 18.37 19.36 20.32 21.06 21.3 22.75 20.32 22.75 18.37 21.06 17.39 19.36 18.37"/>
  <polygon class="cls-3" points="17.67 21.31 17.67 23.27 19.36 24.24 21.06 23.27 21.06 21.31 19.36 20.34 17.67 21.31"/>
  <polygon class="cls-3" points="39.74 47.72 39.74 49.67 41.43 50.65 43.12 49.67 43.12 47.72 41.43 46.74 39.74 47.72"/>
  <polygon class="cls-3" points="41.43 44.79 41.43 46.74 43.12 47.72 44.81 46.74 44.81 44.79 43.12 43.81 41.43 44.79"/>
  <polygon class="cls-3" points="43.12 47.72 43.12 49.67 44.82 50.65 46.51 49.67 46.51 47.72 44.82 46.74 43.12 47.72"/>
  <polygon class="cls-3" points="44.82 44.79 44.82 46.74 46.51 47.72 48.2 46.74 48.2 44.79 46.51 43.81 44.82 44.79"/>
  <polygon class="cls-3" points="43.12 41.84 43.12 43.8 44.82 44.77 46.51 43.79 46.51 41.84 44.82 40.87 43.12 41.84"/>
  <polygon class="cls-2" points="39.74 41.84 39.74 43.79 41.43 44.77 43.12 43.79 43.12 41.84 41.43 40.86 39.74 41.84"/>
  <polygon class="cls-2" points="38.05 44.79 38.05 46.74 39.74 47.72 41.43 46.74 41.43 44.79 39.74 43.81 38.05 44.79"/>
  <polygon class="cls-2" points="37.97 38.93 37.97 40.88 39.66 41.86 41.35 40.88 41.35 38.93 39.66 37.95 37.97 38.93"/>
  <polygon class="cls-2" points="37.97 33.05 37.97 35 39.66 35.98 41.35 35 41.35 33.05 39.66 32.07 37.97 33.05"/>
  <polygon class="cls-3" points="36.27 36 36.27 37.95 37.97 38.93 39.66 37.95 39.66 36 37.97 35.02 36.27 36"/>
  <polygon class="cls-1" points="27.82 38.88 27.82 40.84 29.51 41.81 31.2 40.84 31.2 38.88 29.51 37.91 27.82 38.88"/>
  <polygon class="cls-1" points="26.13 41.83 26.13 43.79 27.82 44.76 29.51 43.79 29.51 41.83 27.82 40.86 26.13 41.83"/>
  <polygon class="cls-1" points="26.13 35.95 26.13 37.91 27.82 38.88 29.51 37.91 29.51 35.95 27.82 34.98 26.13 35.95"/>
  <polygon class="cls-3" points="14.29 21.26 14.29 23.21 15.98 24.19 17.67 23.21 17.67 21.26 15.98 20.28 14.29 21.26"/>
  <polygon class="cls-3" points="17.67 27.18 17.67 29.13 19.36 30.11 21.05 29.13 21.05 27.18 19.36 26.2 17.67 27.18"/>
  <polygon class="cls-3" points="15.98 24.23 15.98 26.19 17.67 27.16 19.36 26.18 19.36 24.23 17.67 23.26 15.98 24.23"/>
  <polygon class="cls-3" points="14.29 27.18 14.29 29.13 15.98 30.11 17.67 29.13 17.67 27.18 15.98 26.2 14.29 27.18"/>
  <polygon class="cls-3" points="43.06 30.09 43.06 32.05 44.75 33.02 46.44 32.05 46.44 30.09 44.75 29.12 43.06 30.09"/>
  <polygon class="cls-3" points="43.04 24.25 43.04 26.2 44.73 27.18 46.42 26.2 46.42 24.25 44.73 23.27 43.04 24.25"/>
  <polygon class="cls-3" points="15.98 53.58 15.98 55.54 17.67 56.51 19.36 55.54 19.36 53.58 17.67 52.61 15.98 53.58"/>
  <polygon class="cls-3" points="17.67 50.65 17.67 52.6 19.36 53.58 21.05 52.6 21.05 50.65 19.36 49.67 17.67 50.65"/>
  <polygon class="cls-3" points="19.36 53.58 19.36 55.54 21.05 56.51 22.75 55.53 22.75 53.58 21.05 52.61 19.36 53.58"/>
  <polygon class="cls-3" points="21.05 50.65 21.05 52.6 22.75 53.58 24.44 52.6 24.44 50.65 22.75 49.67 21.05 50.65"/>
  <polygon class="cls-5" points="19.36 47.7 19.36 49.66 21.05 50.63 22.75 49.66 22.75 47.7 21.05 46.73 19.36 47.7"/>
  <polygon class="cls-5" points="15.98 47.7 15.98 49.66 17.67 50.63 19.36 49.66 19.36 47.7 17.67 46.73 15.98 47.7"/>
  <polygon class="cls-3" points="14.29 50.65 14.29 52.6 15.98 53.58 17.67 52.6 17.67 50.65 15.98 49.67 14.29 50.65"/>
  <polygon class="cls-3" points="26.13 59.47 26.13 61.42 27.82 62.4 29.51 61.42 29.51 59.47 27.82 58.49 26.13 59.47"/>
  <polygon class="cls-3" points="27.82 56.54 27.82 58.49 29.51 59.47 31.2 58.49 31.2 56.54 29.51 55.56 27.82 56.54"/>
  <polygon class="cls-3" points="29.51 59.47 29.51 61.42 31.2 62.4 32.89 61.42 32.89 59.47 31.2 58.49 29.51 59.47"/>
  <polygon class="cls-3" points="31.2 56.54 31.2 58.49 32.89 59.46 34.59 58.49 34.59 56.54 32.89 55.56 31.2 56.54"/>
  <polygon class="cls-3" points="29.51 53.59 29.51 55.54 31.2 56.52 32.89 55.54 32.89 53.59 31.2 52.61 29.51 53.59"/>
  <polygon class="cls-3" points="26.13 53.59 26.13 55.54 27.82 56.52 29.51 55.54 29.51 53.59 27.82 52.61 26.13 53.59"/>
  <polygon class="cls-3" points="24.44 56.54 24.44 58.49 26.13 59.47 27.82 58.49 27.82 56.54 26.13 55.56 24.44 56.54"/>
  <polygon class="cls-1" points="17.78 44.79 17.78 46.74 19.47 47.72 21.16 46.74 21.16 44.79 19.47 43.81 17.78 44.79"/>
  <polygon class="cls-1" points="21.11 44.76 21.11 46.71 22.8 47.69 24.49 46.71 24.49 44.76 22.8 43.79 21.11 44.76"/>
  <polygon class="cls-4" points="34.58 21.24 34.58 23.2 36.27 24.17 37.96 23.19 37.96 21.24 36.27 20.27 34.58 21.24"/>
  <polygon class="cls-4" points="36.27 18.31 36.27 20.26 37.96 21.24 39.65 20.26 39.65 18.31 37.96 17.33 36.27 18.31"/>
  <polygon class="cls-3" points="29.5 18.31 29.5 20.26 31.19 21.24 32.89 20.26 32.89 18.31 31.19 17.33 29.5 18.31"/>
  <polygon class="cls-3" points="31.19 15.38 31.19 17.33 32.89 18.3 34.58 17.33 34.58 15.38 32.89 14.4 31.19 15.38"/>
  <polygon class="cls-3" points="32.9 18.3 32.9 20.25 34.59 21.23 36.28 20.25 36.28 18.3 34.59 17.32 32.9 18.3"/>
  <polygon class="cls-3" points="26.12 18.31 26.12 20.27 27.81 21.24 29.5 20.27 29.5 18.31 27.81 17.34 26.12 18.31"/>
  <polygon class="cls-3" points="12.7 47.7 12.7 49.66 14.39 50.63 16.08 49.66 16.08 47.7 14.39 46.73 12.7 47.7"/>
  <polygon class="cls-3" points="22.75 53.59 22.75 55.54 24.44 56.52 26.13 55.54 26.13 53.59 24.44 52.61 22.75 53.59"/>
  <polygon class="cls-3" points="9.32 30.11 9.32 32.06 11.01 33.04 12.7 32.06 12.7 30.11 11.01 29.13 9.32 30.11"/>
  <polygon class="cls-3" points="48.11 21.3 48.11 23.25 49.81 24.23 51.5 23.25 51.5 21.3 49.81 20.32 48.11 21.3"/>
  <polygon class="cls-3" points="43.06 12.48 43.06 14.44 44.75 15.41 46.44 14.44 46.44 12.48 44.75 11.51 43.06 12.48"/>
</svg>